<svg version="1.1" xmlns="http://www.w3.org/2000/svg" class="logo-svg" xmlns:xlink="http://www.w3.org/1999/xlink" x="0px" y="0px" viewBox="0 0 471.7 161.1" enable-background="new 0 0 471.7 161.1" xml:space="preserve" aria-label="Joyride" role="presentation">
        <g class="logo-inner-fill">
          <path id="Path_852" fill="#50037F" d="M220.8,156.3c-3.7,0-9.1-0.5-13.9-4.8c-4.8-4.5-7.1-11.1-5.9-17.6c0.5-2.1,1.2-4.1,2.3-6
            c0.7-1.1,1.1-2.3,1.3-3.6c-1.4,0.2-2.7,0.5-4,1c-0.9,0.3-1.8,0.6-2.7,0.8c-3.9,0.9-7.9,1.4-11.9,1.6l-0.7,0
            c-1.2,0.1-2.5,0.2-3.9,0.2c-1.3,0-2.7,0.1-4.1,0.1c-2.3,0-4.7-0.1-7.5-0.2c-2.3-0.1-4.6-0.2-6.9-0.4l-0.2,0
            c-1.9-0.1-3.8-0.2-5.6-0.2c-4.9,0-9.8,0.5-14.6,1.6c-1.6,0.4-3.2,0.9-4.8,1.5c-1.6,0.6-3.2,1.4-4.7,2.3c-0.3,0.2-0.6,0.4-0.8,0.5
            l-0.1,0.1c-0.9,0.7-1.8,1.4-2.7,2.1c-0.9,0.7-1.9,1.3-3,1.9c-1.5,0.9-3.1,1.6-4.7,2.3c-4.9,2-10.2,3-15.5,3c-5.9,0-11.8-1.4-17-4.1
            c-5.6,3.9-11.9,6.6-18.5,8.1c-2.1,0.5-4.2,0.8-6.3,1c-2.2,0.2-4.3,0.3-6.5,0.3c-2.9,0-5.8-0.2-8.7-0.5c-1.6-0.2-3.3-0.5-5-0.8
            c-1.1-0.2-2.1-0.5-3.1-0.7c-1.7-0.5-3.4-1-5.1-1.6c-2.9-1.1-5.7-2.5-8.4-4.2c-0.5-0.3-1-0.6-1.5-1c-0.8-0.5-1.6-1.1-2.4-1.7
            c-1.7-1.4-3.4-2.8-4.9-4.4C9.7,123.1,4.8,109.3,4.8,93c0-1.1,0-2.1,0.1-3.2l0-0.4C5.5,80,8.4,72.8,13.8,67
            c3.9-4.2,10.4-7.9,15.4-8.9c-3.7-5.4-5.5-11.9-5.5-19.4l0-1.1c0.1-8.9,3.8-17.3,10.3-23.4c5.2-4.8,11.6-7.8,18.6-8.8
            c2.5-0.4,5-0.6,7.5-0.6h22.6c1.8,0,3.6,0.1,5.3,0.3c1.7,0.2,3.4,0.5,5,0.9c2.2,0.5,4.3,1.3,6.3,2.2c1,0.4,1.8,0.9,2.6,1.3
            c7-3.1,15.2-4.7,24.4-4.7c6.2,0,12.4,1.1,18.3,3.1c2.3,0.8,4.5,1.7,6.6,2.8c2.8-1.9,6-3.4,9.3-4.4c0.8-0.3,1.7-0.5,2.6-0.7
            c1.8-0.4,3.6-0.6,5.4-0.8c0.9-0.1,1.8-0.1,2.8-0.1c0.8,0,1.5,0,2.3,0.1c1.4,0.1,2.8,0.2,4.1,0.4c0.9,0.2,1.9,0.3,2.9,0.6
            c2.6,0.6,5,1.5,7.4,2.6c1.5-0.8,3-1.4,4.6-1.9c4.5-1.3,9.2-1.9,13.9-1.8c4.9-0.1,9.7,0.9,14.2,2.7c5.2-1.9,10.7-2.8,16.2-2.7h18.4
            l9,0c5.9-0.1,11.8,1.1,17.2,3.5c9.6-4.3,20.5-4.8,30.5-1.4c3.7-1.5,7.6-2.2,11.6-2.2l14.5,0c3.6,0,7.3,0,13.9,0
            c7.3-0.1,14.5,1.3,21.2,4.3c1.1-0.7,2.3-1.2,3.5-1.8c4-1.7,8.2-2.5,12.5-2.5c1.8,0,15.8,0.3,32.5,0.7c9.7,0.2,16.5,0.3,17.1,0.3
            c15.3,0,27.8,11.9,27.8,26.6c-0.1,9.7-5.5,18.6-14,23.1c0.1,0.5,0.2,1,0.3,1.4l0.2,1.1l0.1,0.6c0,0.1,0,0.2,0,0.2l0.1,0.4
            c0.2,1.7,0.4,3.4,0.4,5c0,2.4-0.2,4.8-0.6,7.2c3.5,3.1,6.3,6.9,8.2,11.2c2.3,5,3.2,10.6,2.6,16.1c-0.2,1.9-0.6,3.7-1.1,5.5
            c-0.6,2-1.3,3.9-2.2,5.8c0.4,0.8,0.7,1.6,1.1,2.4c0.2,0.5,0.4,1.1,0.6,1.7s0.4,1.2,0.5,1.9c0.1,0.3,0.1,0.7,0.2,1
            c0.1,0.7,0.2,1.5,0.3,2.2c0,0.4,0.1,0.8,0.1,1.2s0,0.8,0,1.3c0,0.9,0,1.8-0.1,2.6c0,0.4-0.1,0.9-0.1,1.4c-0.1,1-0.3,1.9-0.5,2.9
            c-0.2,1-0.5,2-0.8,3c-0.3,1.1-0.7,2.1-1.1,3.2c-0.3,0.7-0.6,1.4-0.9,2.1c0,0.3,0,0.6,0,0.9c0,0.2,0,0.4,0,0.6c0,0.6,0,1.2-0.1,1.7
            c0,0.2,0,0.4,0,0.6c-0.1,0.7-0.2,1.4-0.3,2c0,0.1,0,0.2-0.1,0.3c-0.1,0.5-0.2,1.1-0.4,1.5c-0.1,0.2-0.1,0.4-0.2,0.6
            c-0.1,0.4-0.3,0.9-0.5,1.3c-0.1,0.2-0.1,0.3-0.2,0.4c-0.2,0.5-0.5,1-0.8,1.5c-0.1,0.2-0.2,0.3-0.2,0.4c-0.2,0.4-0.5,0.7-0.8,1.1
            c-0.1,0.1-0.2,0.3-0.3,0.4c-0.3,0.3-0.6,0.6-0.9,0.9c-0.1,0.1-0.2,0.2-0.3,0.3c-0.4,0.3-0.8,0.7-1.3,1c-0.1,0.1-0.2,0.1-0.3,0.2
            c-0.3,0.2-0.7,0.4-1,0.6c-0.2,0.1-0.3,0.2-0.5,0.2c-0.4,0.2-0.7,0.3-1.1,0.5c0,0-0.1,0.1-0.3,0.1c-0.4,0.1-0.9,0.3-1.3,0.4
            l-0.4,0.1c-0.3,0.1-0.7,0.2-1,0.2l-0.4,0.1c-0.4,0.1-0.9,0.1-1.3,0.2c-0.5,0.1-0.9,0.1-1.4,0.1l-0.3,0c-0.3,0-0.7,0-1,0h-0.3
            c-0.4,0-0.8,0-1.1,0h-0.1c-0.4,0-0.7,0-1.1-0.1c0,0-0.8-0.1-1.1-0.1l-1.3-0.1l-5.7-0.7l-3.3-0.4l-3.1-0.3L423,153l-4.5-0.4
            l-4.9-0.4l-2.6-0.2l-2.6-0.2l-3.2-0.2l-3.1-0.2l-3.1-0.2c-1,0-3.5-0.2-3.5-0.2l-3.8-0.2l-3.5-0.1c-1.2,0-3.8-0.1-3.8-0.1
            c-1.1,0-4.6-0.1-4.6-0.1l-4-0.1c-1.2,0-4-0.1-4-0.1c-1.4,0-2.7,0-4.1-0.1l-5.8-0.1l-4.5,0c-1.5,0-5.8,0-5.8,0l-5.1,0
            c-1.6,0-5,0-5,0c-1.7,0-6.6,0.1-6.6,0.1c-1.3,0-5.5,0.1-5.5,0.1c-1.8,0-6,0.1-6,0.1c-1.7,0-6.8,0.2-6.8,0.2l-5.9,0.2
            c-2,0.1-3.9,0.1-5.9,0.2l-8,0.3c-1.7,0.1-6.3,0.3-6.3,0.3c-2.1,0.1-4.2,0.2-6.4,0.3l-8.7,0.4c-1.9,0.1-6.8,0.4-6.8,0.4
            c-2.3,0.1-4.6,0.3-6.9,0.4l-9.3,0.6c-2.4,0.2-4.8,0.3-7.3,0.5c-2.1,0.1-5.7,0.4-11.1,0.9l-5.2,0.5l-1.3,0.1
            C225.1,156.1,223,156.3,220.8,156.3"></path>
        </g>
        <!-- <g class="logo-outline">
          <path id="Path_853" fill="#fff" d="M389.4,9.7c1.9,0,18.8,0.4,32.4,0.6c10.7,0.2,16.7,0.4,17.2,0.4c12.7,0,23,9.8,23,21.8
            c-0.1,8.1-4.7,15.4-11.9,19l-2.9,1.5l0.8,3.2c0.2,0.7,0.3,1.3,0.4,1.8c0.1,0.3,0.1,0.6,0.2,0.8c0,0.1,0,0.2,0.1,0.3
            c0,0.2,0.1,0.3,0.1,0.4l0.1,0.4c0.2,1.4,0.3,2.9,0.3,4.3c0,2.2-0.2,4.4-0.6,6.6l-0.5,2.4l1.8,1.6c3.1,2.7,5.6,6,7.3,9.8
            c1.9,4.3,2.7,9,2.2,13.6c-0.2,1.6-0.5,3.2-0.9,4.7c-0.7,2.5-1.7,4.8-2.9,7.1c0,0.1,0.1,0.3,0.2,0.6c0.1,0.2,0.2,0.4,0.3,0.6
            s0.3,0.5,0.4,0.8c0.4,0.7,0.7,1.4,1,2.2c0.2,0.4,0.3,0.9,0.5,1.4s0.3,1,0.4,1.6c0.1,0.3,0.1,0.6,0.2,0.8c0.1,0.6,0.2,1.2,0.3,1.8
            c0,0.3,0.1,0.6,0.1,1s0,0.7,0,1c0,0.7,0,1.4-0.1,2.2c0,0.4-0.1,0.8-0.1,1.2c-0.1,0.8-0.2,1.6-0.4,2.5c-0.2,0.8-0.4,1.7-0.7,2.6
            s-0.6,1.8-1,2.8s-0.8,2-1.4,3c0.1,0.7,0.1,1.3,0.1,1.9c0,0.2,0,0.4,0,0.5c0,0.5,0,0.9-0.1,1.3c0,0.2,0,0.3,0,0.5
            c-0.1,0.5-0.1,1.1-0.2,1.5c0,0.1,0,0.1,0,0.2c-0.1,0.4-0.2,0.8-0.3,1.2c0,0.1-0.1,0.3-0.1,0.4c-0.1,0.3-0.2,0.6-0.4,0.9
            c0,0.1-0.1,0.2-0.1,0.3c-0.2,0.4-0.4,0.7-0.6,1c0,0.1-0.1,0.1-0.1,0.2c-0.2,0.2-0.3,0.5-0.5,0.7c-0.1,0.1-0.1,0.2-0.2,0.3
            c-0.2,0.2-0.4,0.4-0.6,0.6c-0.1,0.1-0.1,0.1-0.2,0.2c-0.3,0.2-0.5,0.4-0.8,0.6c-0.1,0-0.1,0.1-0.2,0.1c-0.2,0.1-0.5,0.3-0.7,0.4
            c-0.1,0-0.2,0.1-0.3,0.1c-0.3,0.1-0.5,0.2-0.8,0.3l-0.1,0.1c-0.3,0.1-0.6,0.2-1,0.3c-0.1,0-0.2,0-0.3,0.1c-0.3,0.1-0.5,0.1-0.8,0.2
            c-0.1,0-0.2,0-0.3,0.1c-0.3,0.1-0.6,0.1-1,0.1c0,0,0,0-0.1,0c-0.3,0-0.7,0.1-1,0.1l-0.3,0c-0.3,0-0.5,0-0.8,0h-0.3h0
            c-0.3,0-0.6,0-0.9,0h0c-0.3,0-0.6,0-1-0.1l-0.3,0c-0.2,0-0.5,0-0.7-0.1l-0.3,0c-0.2,0-0.5,0-0.7-0.1l-0.2,0c-0.3,0-0.6-0.1-0.8-0.1
            l-0.2,0l-0.7-0.1l-0.5-0.1l-0.3,0c-0.2,0-0.4-0.1-0.6-0.1l-0.2,0h0l-0.3,0l-0.3,0l-0.3,0l-0.5-0.1l-0.3,0c-0.1,0-0.3,0-0.4,0
            l-0.3,0l-0.7-0.1l-0.1,0l-1-0.1l-0.3,0c-0.3,0-0.5-0.1-0.8-0.1l-0.4,0l-1-0.1l-0.3,0l-1.4-0.1l-0.5,0c-0.4,0-0.7-0.1-1.1-0.1
            l-0.6-0.1l-1.3-0.1l-0.5,0c-0.6,0-1.2-0.1-1.8-0.2l-0.5,0l-1.5-0.1l-0.7-0.1c-0.5,0-1.1-0.1-1.6-0.1l-0.6,0
            c-0.7-0.1-1.5-0.1-2.2-0.2l-0.6,0c-0.6,0-1.2-0.1-1.8-0.1l-0.8-0.1c-0.6,0-1.2-0.1-1.8-0.1l-0.8-0.1c-0.9-0.1-1.7-0.1-2.6-0.2
            l-0.6,0c-0.7,0-1.5-0.1-2.2-0.1l-1-0.1c-0.7,0-1.4-0.1-2.1-0.1l-1,0c-1,0-2-0.1-3.1-0.1l-0.5,0c-0.9,0-1.8-0.1-2.8-0.1l-1.1,0
            c-0.8,0-1.6-0.1-2.5-0.1l-1.1,0c-1.2,0-2.3-0.1-3.5-0.1l-0.2,0c-1.1,0-2.3-0.1-3.5-0.1l-1.2,0c-0.9,0-1.8,0-2.7-0.1l-1.2,0
            c-1.2,0-2.5,0-3.7-0.1l-0.3,0c-1.4,0-2.7,0-4.1-0.1l-1.3,0c-1,0-2.1,0-3.1,0l-1.4,0c-1.2,0-2.5,0-3.8,0h-0.7c-1.5,0-3,0-4.6,0h-1.3
            c-1.2,0-2.4,0-3.7,0l-1.5,0c-1.5,0-3.1,0-4.7,0h-0.4c-1.7,0-3.4,0-5.1,0.1l-1.5,0c-1.3,0-2.7,0-4,0.1l-1.5,0
            c-1.8,0-3.6,0.1-5.5,0.1l-0.6,0c-1.7,0-3.4,0.1-5.1,0.1l-1.7,0c-1.5,0-3,0.1-4.5,0.1c-0.5,0-1,0-1.4,0c-2,0.1-3.9,0.1-5.9,0.2
            l-1.2,0c-1.6,0.1-3.3,0.1-5,0.2l-1.9,0.1c-1.7,0.1-3.3,0.1-5,0.2c-0.5,0-0.9,0-1.3,0.1c-2.1,0.1-4.2,0.2-6.4,0.3l-1.6,0.1
            c-1.7,0.1-3.4,0.2-5.1,0.3l-2,0.1c-1.9,0.1-3.9,0.2-5.9,0.3l-1,0.1c-2.3,0.1-4.6,0.3-6.9,0.4l-1.9,0.1c-1.8,0.1-3.6,0.2-5.4,0.3
            c-0.7,0-1.4,0.1-2.1,0.1c-2.4,0.2-4.8,0.3-7.3,0.5c-2.6,0.2-6.9,0.5-11.1,0.9l-1.8,0.2l-1.7,0.2L228,151c-2.4,0.2-4.8,0.5-7.2,0.5
            c-3.8,0-7.5-0.7-10.6-3.6c-3.6-3.4-5.3-8.3-4.5-13.2c0.7-4.1,4.2-7.1,3.6-11.4c-0.1-1.5-1-2.8-2.3-3.4c-0.7-0.3-1.5-0.4-2.2-0.4
            c-2.7,0-5.8,1.4-8.1,1.9c-3.6,0.8-7.3,1.3-11.1,1.5l-0.7,0c-1.2,0.1-2.5,0.2-3.7,0.2s-2.6,0.1-4,0.1c-2.5,0-4.9-0.1-7.3-0.2
            s-4.7-0.3-7-0.4c-2-0.1-4-0.2-5.9-0.2c-5.3-0.1-10.6,0.5-15.8,1.7c-1.8,0.4-3.6,1-5.4,1.6c-1.9,0.7-3.8,1.6-5.6,2.7
            c-0.5,0.3-0.8,0.6-1.1,0.8l-0.2,0.2c-0.8,0.6-1.6,1.3-2.4,1.8c-0.8,0.6-1.7,1.1-2.6,1.6c-1.3,0.8-2.7,1.4-4.2,2
            c-4.3,1.8-9,2.7-13.7,2.7c-5.3,0-10.5-1.3-15.1-3.7l-2.3-1.2l-2.1,1.5c-5.1,3.6-10.9,6.2-17,7.5c-1.9,0.4-3.8,0.7-5.8,0.9
            c-2,0.2-4,0.3-6,0.3c-2.7,0-5.4-0.2-8.1-0.5c-1.6-0.2-3.1-0.5-4.6-0.8c-0.9-0.2-1.9-0.4-2.8-0.7c-1.6-0.4-3.1-0.9-4.6-1.5
            c-2.6-1-5.2-2.3-7.5-3.8c-0.4-0.3-0.9-0.6-1.3-0.9c-0.7-0.5-1.4-1-2.1-1.5c-1.6-1.2-3-2.5-4.4-3.9C14,120.7,9.6,108.1,9.7,93
            c0-1,0-2,0.1-3.1l0-0.3c0.5-8.1,2.9-14.3,7.5-19.2c3.6-3.8,9.5-7,13.4-7.5c0.1,0,1.9-0.4,2.3-0.6c1.2-0.3,2.1-1.4,2.1-2.6
            c-0.1-1.3-0.6-2.5-1.4-3.5c-4.9-6.6-5.2-14-5.1-17.3c0-0.2,0-0.4,0-0.6l0-0.4c0.1-7.5,3.3-14.7,8.7-19.9c4.5-4.1,10.1-6.7,16.1-7.6
            c2.2-0.3,4.5-0.5,6.7-0.5h22.6c1.6,0,3.2,0.1,4.8,0.3c1.5,0.2,3,0.4,4.4,0.8c1.9,0.5,3.7,1.1,5.4,1.9c0.8,0.4,1.6,0.8,2.4,1.2
            l1.9,1.1l2-0.9c6.4-2.9,14-4.4,22.7-4.4c5.7,0,11.4,1,16.8,2.8c2.2,0.7,4.3,1.6,6.3,2.7l0.8,0.4l1.5,0.8l2.1-1.5
            c2.5-1.7,5.3-3,8.2-3.9c0.7-0.2,1.5-0.4,2.3-0.6c1.6-0.3,3.1-0.6,4.7-0.7c0.8-0.1,1.6-0.1,2.4-0.1c0.7,0,1.3,0,2,0.1
            c1.2,0.1,2.4,0.2,3.6,0.4c0.9,0.1,1.7,0.3,2.5,0.5c2.3,0.5,4.5,1.3,6.6,2.4l2,1l1.9-1c1.3-0.7,2.7-1.3,4.1-1.7
            c4-1.2,8.2-1.7,12.4-1.6c4.3-0.1,8.6,0.8,12.5,2.4l1.6,0.7l1.6-0.6c4.7-1.7,9.7-2.6,14.7-2.5h11.9h3.1h1.6h1.7c1.5,0,3.2,0,5.2,0
            c1.2,0,2.5,0,3.9,0c5.3-0.1,10.6,1,15.5,3.2l1.8,0.8l1.8-0.9c8.6-3.8,18.3-4.3,27.1-1.2l1.5,0.6l1.5-0.6c3.2-1.3,6.6-1.9,10-2
            l14.5,0c3.6,0,7.3,0,13.9,0c6.7-0.1,13.3,1.2,19.5,3.9l2,1l1.9-1.2c1-0.6,2.1-1.2,3.2-1.6C382.1,10.4,385.7,9.6,389.4,9.7 M389.4,0
            c-5,0-9.9,1-14.4,2.9c-0.6,0.3-1.3,0.6-1.9,0.9c-6.7-2.6-13.8-3.8-21-3.7c-6.6,0-10.3,0-13.9,0l-14.5,0c-4,0-7.9,0.7-11.7,1.9
            c-4.3-1.3-8.8-2-13.3-1.9c-5.9-0.1-11.8,1-17.2,3.2c-5.5-2.1-11.3-3.1-17.2-3.1l-3.8,0l-5.2,0h-1.8H252h-3.1l-11.9,0
            c-5.5-0.1-10.9,0.8-16.1,2.4c-4.6-1.6-9.4-2.4-14.3-2.4c-5.2-0.1-10.4,0.5-15.3,2c-1.1,0.3-2.2,0.7-3.2,1.2c-2-0.8-4.1-1.5-6.2-2
            c-1.1-0.3-2.2-0.5-3.3-0.6c-1.5-0.2-3.1-0.4-4.6-0.5c-0.8,0-1.7-0.1-2.5-0.1c-1,0-2.1,0-3.1,0.1c-2.1,0.1-4.1,0.4-6.1,0.9
            c-1,0.2-2,0.5-3,0.8c-2.9,0.8-5.6,2-8.2,3.5c-1.5-0.7-3.1-1.3-4.7-1.9c-6.4-2.2-13.1-3.3-19.9-3.4c-8.3-0.1-16.5,1.3-24.2,4.2
            c-0.2-0.1-0.5-0.2-0.8-0.4C99,2.8,96.6,2,94.2,1.4c-1.9-0.5-3.7-0.8-5.6-1c-1.9-0.2-3.9-0.3-5.9-0.3H60c-2.8,0-5.5,0.2-8.2,0.6
            c-7.9,1.1-15.3,4.6-21.1,10.1c-7.4,6.9-11.6,16.5-11.8,26.6v0.1l0,0.4c0,0,0,0.1,0,0.1v0.7c-0.1,5.7,1,11.4,3.3,16.7
            c-4.5,2-8.5,4.8-11.9,8.3C4.1,70.2,0.7,78.7,0.1,89c0,0,0,0.1,0,0.1l0,0.3c0,0,0,0.1,0,0.1C0,90.7,0,91.8,0,92.9
            c0,17.7,5.3,32.6,15.5,43.2c1.7,1.7,3.5,3.4,5.4,4.9c0.9,0.7,1.7,1.3,2.6,1.9c0.5,0.4,1.1,0.7,1.6,1.1c2.9,1.8,6,3.4,9.2,4.6
            c1.8,0.7,3.6,1.3,5.5,1.8c1,0.3,2.1,0.5,3.3,0.8c1.8,0.4,3.6,0.7,5.4,0.9c3.1,0.4,6.2,0.6,9.2,0.6c2.4,0,4.7-0.1,7-0.4
            c2.3-0.2,4.6-0.6,6.8-1.1c6.3-1.4,12.4-3.8,17.9-7.2c5.3,2.2,10.9,3.4,16.6,3.4c5.9,0,11.8-1.2,17.3-3.4c1.8-0.7,3.6-1.6,5.3-2.6
            c1.1-0.6,2.3-1.3,3.3-2.1c1-0.7,2-1.5,3-2.2c0.1-0.1,0.2-0.2,0.4-0.3c1.2-0.7,2.5-1.4,3.9-1.9c1.4-0.5,2.8-1,4.2-1.3
            c4.4-1,8.9-1.5,13.5-1.5c1.7,0,3.4,0.1,5.3,0.2c2.3,0.1,4.7,0.3,7.2,0.4c2.8,0.1,5.4,0.2,7.7,0.2c1.5,0,2.9,0,4.3-0.1
            c1.4,0,2.7-0.1,4-0.2l0.6,0c3.5-0.2,7-0.6,10.4-1.2c-0.1,0.5-0.3,1.1-0.4,1.6c-1.5,8.1,1.4,16.5,7.4,22.1
            c4.5,4.1,10.1,6.1,17.1,6.1c2.4,0,4.6-0.2,6.7-0.4l1.3-0.1l1.7-0.1l1.7-0.2l1.8-0.2c5.3-0.5,8.9-0.8,11-0.9
            c2.4-0.2,4.8-0.3,7.2-0.5l1.7-0.1l0.4,0c1.8-0.1,3.6-0.2,5.3-0.3l0.7,0l1.3-0.1c2.3-0.1,4.6-0.3,6.9-0.4l0.5,0l0.4,0
            c2-0.1,3.9-0.2,5.8-0.3l2-0.1c1.7-0.1,3.4-0.2,5.1-0.3l0.7,0l0.9,0c2.1-0.1,4.3-0.2,6.4-0.3l0.7,0l0.6,0c1.7-0.1,3.3-0.1,5-0.2
            l1.9-0.1c1.7-0.1,3.3-0.1,5-0.2l0.5,0l0.7,0c2-0.1,4-0.1,5.9-0.2l0.9,0l0.6,0c1.5,0,3-0.1,4.5-0.1l1.7,0c1.7,0,3.4-0.1,5-0.1l0.3,0
            l0.3,0c1.8,0,3.6-0.1,5.4-0.1l1.2,0h0.3c1.4,0,2.7,0,4-0.1h0.4l1.1,0c1.7,0,3.4,0,5.1-0.1h0.4c1.6,0,3.1,0,4.6,0h1.2h0.3
            c1.2,0,2.4,0,3.6,0h1.3c1.5,0,3,0,4.5,0h0.4h0.3c1.3,0,2.5,0,3.7,0l1.2,0h0.1c1,0,2.1,0,3.1,0h0.4l0.9,0c1.4,0,2.7,0,4.1,0.1h0.1
            h0.2c1.2,0,2.5,0,3.7,0.1l1.1,0h0.1c0.9,0,1.8,0,2.7,0.1h0.2l1,0c1.2,0,2.3,0.1,3.4,0.1h0.1h0.1c1.2,0,2.4,0.1,3.5,0.1l0.7,0l0.3,0
            c0.8,0,1.6,0.1,2.4,0.1l1.1,0c0.9,0,1.9,0.1,2.8,0.1l0.2,0l0.3,0c1,0,2,0.1,3,0.1l0.6,0l0.4,0l2,0.1l1,0.1c0.7,0,1.5,0.1,2.2,0.1
            l0.3,0l0.3,0c0.9,0,1.7,0.1,2.6,0.2l0.5,0l0.3,0l1.8,0.1l0.8,0.1l1.8,0.1l0.2,0l0.4,0c0.8,0.1,1.5,0.1,2.2,0.2l0.3,0l0.2,0l1.6,0.1
            l0.2,0l0.5,0l1.5,0.1l0.2,0l0.3,0l1.8,0.1l0.4,0l0.1,0l1.2,0.1l0.5,0l1.1,0.1l0.2,0l0.2,0l1.3,0.1l0.2,0l0.2,0l0.9,0.1l0.4,0
            l0.8,0.1l0.3,0l0.9,0.1l0.1,0l0.1,0l0.7,0.1l0.3,0l0.4,0l0.1,0l0.1,0l0.4,0.1l0.3,0l0.2,0l0.4,0l0.4,0c0.1,0,0.3,0,0.4,0.1l0.2,0
            l0.5,0.1l0.7,0.1l0.2,0c0.3,0,0.6,0.1,1,0.1l0.2,0c0.3,0,0.6,0.1,0.9,0.1l0.4,0c0.3,0,0.6,0,0.8,0.1h0.1l0.3,0
            c0.4,0,0.8,0.1,1.3,0.1h0.1c0.4,0,0.8,0,1.2,0h0.1h0.3h0.1c0.4,0,0.7,0,1.1,0l0.4,0c0.6,0,1.1-0.1,1.6-0.1l0.2,0
            c0.5-0.1,0.9-0.1,1.4-0.2c0.1,0,0.3-0.1,0.4-0.1c0.5-0.1,0.9-0.2,1.3-0.3c0.2,0,0.3-0.1,0.5-0.1c0.6-0.2,1.2-0.4,1.8-0.6
            c0.1-0.1,0.3-0.1,0.4-0.2c0.5-0.2,0.9-0.4,1.4-0.6c0.2-0.1,0.4-0.2,0.6-0.3c0.4-0.2,0.9-0.5,1.3-0.8c0.2-0.1,0.3-0.2,0.5-0.3
            c0.6-0.4,1.2-0.8,1.7-1.3c0.1-0.1,0.3-0.3,0.5-0.4c0.4-0.4,0.8-0.8,1.2-1.2c0.2-0.2,0.3-0.4,0.5-0.5c0.4-0.4,0.7-0.9,1-1.4
            c0.1-0.2,0.2-0.3,0.4-0.5c0.4-0.7,0.8-1.4,1.1-2.1c0.1-0.2,0.2-0.4,0.3-0.6c0.2-0.5,0.4-1.1,0.6-1.7c0.1-0.2,0.2-0.5,0.2-0.7
            c0.2-0.6,0.3-1.2,0.5-1.9c0-0.2,0.1-0.3,0.1-0.5c0.1-0.7,0.3-1.5,0.3-2.4c0-0.2,0-0.4,0-0.6l0-0.1c0-0.6,0.1-1.2,0.1-1.9v-0.1
            c0-0.2,0-0.3,0-0.5c0.2-0.4,0.4-0.9,0.6-1.3c0.5-1.2,0.9-2.4,1.3-3.6c0.4-1.2,0.7-2.3,0.9-3.5c0.2-1.1,0.4-2.2,0.6-3.3
            c0.1-0.5,0.1-1.1,0.2-1.6c0.1-1,0.1-2.1,0.1-3.1c0-0.5,0-1,0-1.5s-0.1-0.9-0.1-1.4c-0.1-0.9-0.2-1.8-0.4-2.6
            c-0.1-0.4-0.2-0.8-0.3-1.2c-0.2-0.8-0.4-1.5-0.6-2.3c-0.2-0.7-0.4-1.3-0.7-2c-0.1-0.2-0.2-0.5-0.3-0.7c0.6-1.4,1.1-2.9,1.5-4.4
            c0.6-2.1,1-4.2,1.2-6.3c0.7-6.3-0.4-12.8-3-18.6c-1.8-4-4.4-7.7-7.5-10.9c0.2-1.8,0.3-3.6,0.3-5.4c0-1.9-0.1-3.8-0.4-5.7l-0.1-0.4
            c0-0.1,0-0.2,0-0.2c8.4-5.8,13.4-15.2,13.4-25.4C471.7,15.1,457,1,439,1c-0.7,0-9.4-0.2-17-0.3C405.3,0.3,391.3,0,389.4,0L389.4,0"></path>
        </g> -->
        <g class="logo-text">
          <g>
            <g id="Group_797">
              <path id="Path_854" fill="#FFFFFF" d="M215.9,36.9c0-3.6,0-9.2-9.4-9.2c-7.1,0-11.6,0.7-11.6,9.1c-0.3,7.8-0.6,12.6-1.1,16.6
                c-0.7,6.1-1.3,9.1-5.7,9.1c-7.9,0-8.1-7.3-8.3-9.2c-0.4-4.3,0.5-9.7,1.2-13.3c0.4-2.1,1.6-6.2-0.7-9c-1.8-2.1-5-3.3-9.1-3.3
                c-11.5,0-11.9,10.3-12,11.4c-1,10.6-0.8,22.1,5.5,31.3c7.6,9.9,16.6,9.9,21.6,9.9c2.4-0.1,2.6,2.3,2.2,3.4c-4,8.3-23,2.7-36.4,2
                c-3.8-0.3-7.8-0.5-11.7-0.7c-11.3-0.4-19.8,0.2-27.5,2.2c-5.9,1.5-17.2,5.7-18.7,14.4c-3.8,19.9,15.3,20.9,23.6,13.6
                c2.2-1.7,16.1-12.7,46.4-10.8c6.5,0.6,13,0.7,19.5,0.3c0.3,0,0.7,0,1.1-0.1c5.8-0.3,21.2-1.2,26.4-19.8
                C213,79,215.9,44.4,215.9,36.9"></path>
              <path id="Path_855" fill="#FFFFFF" d="M298.8,83.3l-1.2-0.1c-10-0.6-21.3-1.4-29.8-10.8c-0.6-0.6-0.8-1.4-0.8-2.2
                c0.2-1.2,1.7-2.2,2.7-2.9c7.2-4.9,11.6-13.1,11.6-21.8c0-12.7-7.7-17.9-16.9-17.9h-0.1c-10.1,0-13.5,0-19.9,0H237
                c-12.3,0-15,5.5-15.7,15c-0.6,8-2.9,45-2.9,47.8c0,1.5,0,2.9,0.1,4.2c0.1,2.2,0.7,4.3,1.8,6.2c2,2.7,5,4.5,8.4,4.8
                c0.8,0.1,1.6,0.2,2.4,0.2c2.6,0.1,5.1-0.7,7.2-2.2c1.6-1.4,2.7-3.2,3.1-5.3c0.5-3.1,0.7-6.2,0.7-9.3c0.1-2.3,0.2-4.6,0.4-6.8
                v-0.1c0-1.2,0.8-2.3,1.9-2.7c1.4-0.4,3,0.4,4.3,2.3l0.1,0.1c7.1,9,14.8,15.5,22.9,19.1c6.1,2.9,12.9,3.9,19.6,2.9
                c8.2-1.4,12.9-9.5,12.8-14.8C303.9,85.8,302,83.6,298.8,83.3 M261.2,48c0.3,1.1-0.7,1.8-1.4,2.2c-4.3,2.9-10.6,6.9-16.1,10.4
                c-0.8,0.3-1.7,0.2-2.4-0.3c-0.6-0.5-0.9-1.2-0.8-1.9c0.1-1.9,0.4-5.2,0.6-7.5c0.1-1.2,0.2-2.2,0.2-2.8l0-0.1
                c0-0.6,0.1-1.9,2.5-1.9c1.4,0,2.6,0,3.6,0c3.4,0,5.2,0,9.7,0.1l1.1,0C259.5,46.1,260.7,46.8,261.2,48"></path>
              <path id="Path_856" fill="#FFFFFF" d="M287.2,54.9c-0.1,4.5-0.3,9.1-0.4,13.8c0,8.5,8.8,8.7,11,8.7s10,0.8,10-6.8
                c0.1-6.1,0.3-10.2,0.5-15.7c0.2-5.3,0.3-12.4,0.5-18.4c0.1-2.5,0.4-8.9-10-8.9c-8,0-10.9,2.9-11,8.4
                C287.6,42.6,287.4,48.8,287.2,54.9"></path>
              <path id="Path_857" fill="#FFFFFF" d="M99.4,50.7c-0.6,7.8,1.7,15,6.6,20.3c5,5.4,12.3,8.3,20.6,8.3h0.2
                c23,0,26.3-13.8,26.4-27.2c0.1-6.8-2-12.4-6.3-16.7c-4.9-4.9-12.4-7.7-20.6-7.7C101.1,27.7,99.9,43.2,99.4,50.7 M120.8,52.7
                c0.3-3.9,0.7-7.7,6.3-7.7c3.1,0,6.3,1.8,6.2,7.7c-0.1,2.8-0.3,9.2-6.1,9.2C120.8,61.9,120.6,55.9,120.8,52.7"></path>
              <path id="Path_858" fill="#FFFFFF" d="M94.8,40c0.6-6.5-1.3-12.3-12.1-12.3H60c-10.1,0-13.2,5-13.4,10.5
                c-0.1,6.8,2.1,10.5,12,10.5c10.2,0.1,10.3,0.2,11,0.2c2.7-0.1,2.7,1.5,2.5,3.7c-0.7,8.6-2.5,29-3,35.2
                c-1.2,12.5-6,15.5-10.9,15.5c-8.1,0-8.5-6.2-9.2-14.3c-0.1-0.7-0.1-1.4-0.2-2.1C48,80.1,41.6,80,38.6,80h-0.1
                c-7.4-0.1-10.3,3.3-10.7,10.4c-0.6,13.9,3,34.3,30.1,34.3c21.3,0,30.8-15.5,32.7-36.5C90.9,84.9,94.4,45.1,94.8,40"></path>
              <path id="Path_859" fill="#FFFFFF" d="M372.8,76.2c0.2-4.2,0.3-14,0.4-21.1c0.1-3.8,0.1-7,0.1-8.4c0.1-5.9-1.6-19.1-21.2-19.1
                c-12,0-14.3,0-24,0h-4.3c-4.1-0.3-7.7,2.9-7.9,7c0,0,0,0.1,0,0.1c-0.1,0.8-0.4,16.4-0.8,38.4c-0.2,10.8-0.4,20.1-0.4,20.9l0,0.2
                c-0.1,1.2-0.2,3.8,1.7,5.8c1.3,1.4,3.4,2.1,6,2.1c4.8,0,30.9-0.4,31.4-0.5C360.2,101,372.8,100,372.8,76.2 M353,70.8
                c-0.1,7.2-3.3,10.6-9.1,10.5c-1,0-4.8-0.1-5.7-0.1c-2.2,0-2.5-0.1-2.4-2c0,0,0.5-20,0.8-28.5c0.1-3.6,0.2-3.6,3.6-3.5l5.2,0
                c4.1-0.1,7.6,3.1,7.7,7.2c0,0.2,0,0.5,0,0.7C353,58,353.1,67.7,353,70.8"></path>
              <path id="Path_860" fill="#FFFFFF" d="M436.9,87.4c-9.1-6.2-24.3-6-30.1-6.1c-0.4,0-0.8,0-1.1,0c-2.1,0-6.3,0.4-6.3-4
                c0-3.6,1.9-3.8,5.4-3.8c6.2-0.1,9.8-0.1,15.3-0.1s11-0.6,11-9.3c0-4.8-2.5-8.5-7.5-8.8c-2.3-0.2-15-0.5-16.9-0.5
                c-3-0.1-5.9,0.5-5.9-4.2c0-3.2,1.4-3.9,4.4-3.9c3.2,0,20.7,0.3,22.6,0.3c6.9,0,9.8-0.7,9.8-9.8c0-8.2-3.5-8.8-9.3-8.8
                c-1.3,0-34.1-0.7-38.8-0.7h0c-4.9,0-8.1,3-8.4,7.9c-0.4,6.4-0.7,21.6-0.9,35c-0.2,10-0.3,19.4-0.5,22.6c-0.2,2.1,0.4,4.2,1.8,5.8
                c1.9,2.2,4.6,3.4,7.5,3.2c0,0,23.9-0.5,32.8,1.8c4.8,1.1,12.7,4.9,18-3C442.3,96.2,441.9,91.2,436.9,87.4"></path>
            </g>
          </g>
          <g enable-background="new    ">
            <path fill="#FFFFFF" d="M442,29.9h-0.9c-0.4,0-0.6-0.2-0.6-0.6v0c0-0.3,0.2-0.5,0.6-0.5h3.1c0.4,0,0.6,0.2,0.6,0.5v0
              c0,0.4-0.2,0.6-0.6,0.6h-0.9v3c0,0.4-0.2,0.6-0.6,0.6h-0.2c-0.3,0-0.5-0.2-0.5-0.6V29.9z M445.3,29.4c0-0.4,0.2-0.6,0.5-0.6h0.4
              c0.3,0,0.5,0.1,0.6,0.4l0.8,2l0.8-2c0.1-0.3,0.3-0.4,0.6-0.4h0.4c0.4,0,0.5,0.2,0.5,0.6V33c0,0.4-0.1,0.6-0.5,0.6h-0.2
              c-0.3,0-0.5-0.2-0.5-0.6v-2.4l-0.6,1.8c0,0.1-0.1,0.3-0.5,0.3c-0.5,0-0.5-0.1-0.5-0.3l-0.7-1.7V33c0,0.4-0.1,0.6-0.5,0.6h-0.2
              c-0.4,0-0.5-0.2-0.5-0.6V29.4z"></path>
          </g>
        </g>
        <g class="logo-subtext">
          <g enable-background="new    ">
            <path fill="#A8D500" d="M218.6,134.2l0.9-9.4c0.2-1.8,0.9-2.8,2.5-3l0.6-0.1c1.6-0.2,2.7,0.6,2.5,2.4l-0.8,10.3
              c-0.1,1,0.3,1.7,1.1,1.6c0.8-0.1,1.2-0.8,1.3-1.9l0.9-10.3c0.2-1.8,0.9-2.8,2.5-3l0.6-0.1c1.6-0.2,2.7,0.6,2.6,2.4l-0.8,9.4
              c-0.5,5.6-2.8,8.4-7,8.9C220,142,218.2,137.8,218.6,134.2z"></path>
          </g>
          <g enable-background="new    ">
            <path fill="#A8D500" d="M245.5,139.1c-2,0.2-3.2-1-3.4-2.8c-0.1-1.1,0-1.8,0.3-3.6c0.3-2.1,0.5-3.1,0.4-3.9
              c-0.1-0.6-0.2-1-0.7-0.9c-0.3,0-0.6,0.2-0.8,0.6l-0.9,7.8c-0.2,2.2-0.9,3.2-2.7,3.4l-0.6,0.1c-1.3,0.1-2.6-0.5-2.4-2.9l1.4-12.5
              c0-0.2,0.7-0.6,1.5-0.6c1.1-0.1,2.3,0.2,2.9,1.5c0.2,0.3,0.3,0.7,0.3,1c0.8-2.1,2-3.2,3.7-3.4c2.2-0.2,3.7,1.4,3.9,3.8
              c0.1,1.4-0.1,3.4-0.4,5c-0.3,1.8-0.5,2.6-0.4,3.5c0.1,0.8,0.4,1.1,0.9,1.3C248.7,136.4,248.4,138.8,245.5,139.1z"></path>
          </g>
          <g enable-background="new    ">
            <path fill="#A8D500" d="M250.5,132c-0.4-5.1,2-9.8,7-10.2c1.4-0.1,2.7,0.1,3.7,0.8c0.9,0.6,1.6,1.5,1.7,2.7
              c0.3,3.2-3.4,3.8-4.5,3.3c0-1.5-0.1-2.2-0.8-2.2c-1.3,0.1-1.6,4.4-1.5,6c0.1,0.9,0.3,1.2,0.7,1.1c0.6,0,0.8-0.6,1.3-2.3
              c0.1-0.3,3.7-0.9,3.9,2c0.1,1.2-0.4,2.3-1.2,3.2c-0.9,0.9-2.2,1.5-3.9,1.7C253.5,138.3,250.8,136.9,250.5,132z"></path>
          </g>
          <g enable-background="new    ">
            <path fill="#A8D500" d="M263.5,131.6c-0.3-5.2,2.1-9.9,6.9-10.2c3.9-0.3,6.1,2,6.3,5.5c0.3,5.2-2.1,9.9-6.8,10.2
              C265.9,137.4,263.7,135.2,263.5,131.6z M271.3,126.8c0-0.7-0.2-1.1-0.9-1.1c-1.3,0.1-1.7,4.4-1.6,6c0,0.7,0.3,1.1,0.9,1.1
              C271,132.7,271.4,128.4,271.3,126.8z"></path>
          </g>
          <g enable-background="new    ">
            <path fill="#A8D500" d="M292.3,132.9c-0.1-1.1,0.2-1.7,0.5-3.5c0.4-2,0.6-3,0.6-3.7c0-0.6-0.2-1-0.6-1c-0.3,0-0.6,0.2-0.9,0.6
              l-1.2,7.6c-0.4,2.1-1.1,3.1-2.8,3.1l-0.6,0c-1.2,0.1-2.5-0.7-2.1-2.9l1.2-6.9c0.1-0.8-0.2-1.2-0.6-1.2c-0.4,0-0.7,0.2-1,0.6
              l-1.2,7.5c-0.4,2.1-1,3.1-2.7,3.1l-0.5,0c-1.3,0.1-2.5-0.7-2.1-2.9l2-12c0-0.2,0.8-0.5,1.5-0.6c1.1-0.1,2.2,0.3,2.7,1.6
              c0.1,0.2,0.2,0.5,0.2,0.8c0.8-1.6,1.9-2.8,3.8-2.9c1.9-0.1,3,1,3.4,2.4c0.9-1.8,2.1-2.7,3.7-2.8c2.1-0.1,3.5,1.6,3.6,3.8
              c0.1,1.4-0.3,3.3-0.6,4.8c-0.4,1.7-0.6,2.5-0.6,3.3c0,0.8,0.3,1.1,0.8,1.3c0.1,0-0.4,2.3-3.2,2.4
              C293.5,135.8,292.4,134.6,292.3,132.9z"></path>
          </g>
          <g enable-background="new    ">
            <path fill="#A8D500" d="M315,132.1c0-1.1,0.2-1.7,0.6-3.5c0.5-2,0.7-3,0.6-3.7c0-0.6-0.1-1-0.6-1c-0.3,0-0.6,0.2-0.9,0.5l-1.4,7.5
              c-0.4,2.1-1.1,3-2.8,3.1l-0.6,0c-1.2,0-2.5-0.7-2.1-2.9l1.3-6.9c0.2-0.8-0.2-1.2-0.5-1.2c-0.4,0-0.7,0.2-1,0.6l-1.4,7.5
              c-0.4,2.1-1.1,3-2.8,3.1l-0.5,0c-1.3,0-2.5-0.7-2.1-2.9l2.2-11.9c0-0.2,0.8-0.5,1.5-0.5c1.1,0,2.2,0.4,2.7,1.6
              c0.1,0.2,0.2,0.5,0.2,0.8c0.9-1.6,1.9-2.8,3.8-2.8c1.9-0.1,3,1,3.3,2.5c1-1.8,2.1-2.6,3.7-2.7c2.1-0.1,3.4,1.7,3.5,3.9
              c0,1.4-0.3,3.3-0.7,4.8c-0.4,1.7-0.7,2.5-0.6,3.3c0,0.8,0.3,1.1,0.8,1.3c0.1,0-0.4,2.3-3.2,2.4C316.2,135,315.1,133.8,315,132.1z"></path>
          </g>
          <g enable-background="new    ">
            <path fill="#A8D500" d="M323.9,129c-0.1-5.2,2.6-9.8,7.4-9.8c3.9-0.1,5.9,2.4,6,5.8c0.1,5.2-2.6,9.8-7.3,9.8
              C326.1,134.8,324,132.5,323.9,129z M332,124.6c0-0.7-0.2-1.1-0.8-1.1c-1.3,0-2,4.3-1.9,5.9c0,0.7,0.2,1.1,0.8,1.1
              C331.4,130.4,332,126.2,332,124.6z"></path>
          </g>
          <g enable-background="new    ">
            <path fill="#A8D500" d="M349,134.7c-2,0-3.1-1.3-3.1-3.1c0-1.1,0.2-1.8,0.7-3.6c0.5-2,0.8-3.1,0.8-3.8c0-0.6-0.1-1-0.7-1
              c-0.3,0-0.6,0.2-0.9,0.6l-1.6,7.7c-0.5,2.2-1.2,3.1-3,3.1l-0.6,0c-1.3,0-2.6-0.8-2.1-3.1l2.6-12.3c0-0.2,0.8-0.5,1.6-0.5
              c1.1,0,2.3,0.5,2.7,1.8c0.1,0.3,0.2,0.7,0.2,1.1c1.1-2,2.4-3,4.1-3c2.2,0,3.5,1.8,3.5,4.1c0,1.5-0.5,3.4-0.9,4.9
              c-0.5,1.7-0.7,2.6-0.7,3.4c0,0.8,0.3,1.1,0.8,1.4C352.5,132.3,351.9,134.6,349,134.7z"></path>
          </g>
          <g enable-background="new    ">
            <path fill="#A8D500" d="M360.9,126.8c0.1-6.6,3.8-12.7,9.6-12.7c1.7,0,3.2,0.5,4.3,1.4c1,0.8,1.6,2,1.6,3.6
              c-0.1,4.7-5.8,4-5.7,3.6c0.4-2.4,0.4-3.4-0.7-3.5c-1.7,0-3.1,5.1-3.2,8.3c0,1.6,0.4,2.3,1.2,2.3c0.9,0,1.4-0.8,2-3.4
              c0.1-0.4,4.5-1.1,4.5,2.9c0,1.6-0.8,3.1-1.9,4c-1.2,1-2.8,1.5-4.6,1.5C364.5,134.7,360.8,133,360.9,126.8z"></path>
          </g>
          <g enable-background="new    ">
            <path fill="#A8D500" d="M376.4,129.2c0.1-4.7,2.8-9.9,6.4-9.8c1.3,0,2.6,0.7,3.1,2.4c0.4-0.7,1-1.3,1.4-1.6
              c0.6-0.4,1.3-0.5,2.1-0.5c1.3,0,2,0.6,1.9,0.9l-2.5,9.9c-0.5,1.9-0.3,2.7,0.4,3.1c0,0.1-0.8,1.6-2.9,1.6c-1.6,0-2.6-0.9-2.8-2.2
              c0-0.1-0.1-0.3-0.1-0.4c-0.7,1.5-1.8,2.5-3.4,2.5C377.5,134.9,376.3,132.4,376.4,129.2z M384,128l0.8-3.4
              c-0.1-0.4-0.4-0.8-0.8-0.8c-1.3,0-2.2,4.1-2.2,5.5c0,0.9,0.3,1.3,0.8,1.3C383.2,130.7,383.5,130.1,384,128z"></path>
          </g>
          <g enable-background="new    ">
            <path fill="#A8D500" d="M402.1,135.6c-2-0.1-3.1-1.4-3-3.2c0-1.1,0.3-1.8,0.8-3.6c0.6-2,0.9-3,0.9-3.8c0-0.6-0.1-1-0.6-1
              c-0.3,0-0.6,0.1-0.9,0.5l-1.9,7.7c-0.5,2.2-1.3,3.1-3.1,3l-0.6,0c-1.3,0-2.5-0.9-2-3.2l3-12.2c0-0.2,0.8-0.5,1.6-0.4
              c1.1,0,2.2,0.5,2.7,1.9c0.1,0.3,0.2,0.7,0.2,1.1c1.1-2,2.5-2.9,4.2-2.8c2.2,0.1,3.5,1.9,3.4,4.2c0,1.5-0.6,3.4-1.1,4.9
              c-0.6,1.7-0.8,2.5-0.9,3.4c0,0.8,0.2,1.1,0.8,1.4C405.7,133.4,405,135.7,402.1,135.6z"></path>
          </g>
          <g enable-background="new    ">
            <path fill="#A8D500" d="M419.9,130.8c-0.5,1.8-0.4,2.5,0.3,2.9c0,0.1-0.8,1.6-2.9,1.5c-1.4-0.1-2.2-0.8-2.6-1.9
              c-0.1-0.1-0.1-0.3-0.2-0.5c-0.7,1.4-1.8,2.2-3.3,2.2c-2.6-0.1-3.6-2.8-3.5-5.8c0.2-4.6,2.8-9.4,6.3-9.3c1.1,0,2.2,0.6,2.8,1.9
              l1.2-4.6c0.5-1.8,1.2-2.6,2.5-2.5l1.1,0c1.1,0,2.2,0.8,1.7,2.7L419.9,130.8z M416.1,125.1c-0.1-0.4-0.4-0.7-0.8-0.8
              c-1.2-0.1-2.1,3.9-2.2,5.2c0,0.9,0.3,1.3,0.7,1.3c0.6,0,1-0.5,1.5-2.5L416.1,125.1z"></path>
          </g>
          <g enable-background="new    ">
            <path fill="#A8D500" d="M437.6,124.3c0,1-0.3,1.7-1.3,3.6l-5.8,10c-1.7,2.9-3.5,4.1-5.8,3.9c-1-0.1-1.8-0.3-2.4-0.8
              c-0.5-0.5-0.8-1.1-0.8-1.9c0.1-1.2,1-1.8,1.3-2.1c0.3,0.3,0.8,0.4,1.2,0.4c0.7,0,1.2-0.3,1.7-1l0.8-1.1c-0.6-0.1-1.4-0.6-1.4-2
              l0-6.7c0-2.7-0.5-3-1.2-3.4c-0.1,0,0.8-2.3,3.6-2.2c1.3,0.1,2.1,0.6,2.5,1.5c0.4,0.9,0.4,2.3,0.1,3.9l-0.9,5.5l4.3-10.6
              C433.6,121.3,437.7,121.2,437.6,124.3z"></path>
          </g>
          <g id="TM_green">
            <g>
              <g id="Group_799">
                <g enable-background="new    ">
                  <path fill="#A8D500" d="M441.4,118.8l-0.9-0.2c-0.4-0.1-0.5-0.3-0.4-0.7l0,0c0.1-0.3,0.3-0.5,0.7-0.4l3,0.7
                    c0.4,0.1,0.5,0.3,0.4,0.6l0,0c-0.1,0.4-0.3,0.5-0.7,0.4l-0.9-0.2l-0.6,3c-0.1,0.4-0.3,0.5-0.7,0.5l-0.2,0
                    c-0.3-0.1-0.5-0.3-0.4-0.7L441.4,118.8z M444.7,119c0.1-0.4,0.3-0.6,0.7-0.5l0.4,0.1c0.3,0.1,0.5,0.2,0.5,0.5l0.4,2.2l1.2-1.8
                    c0.2-0.3,0.3-0.3,0.6-0.2l0.4,0.1c0.4,0.1,0.5,0.3,0.4,0.7l-0.8,3.5c-0.1,0.4-0.2,0.6-0.6,0.5l-0.2,0c-0.3-0.1-0.5-0.3-0.4-0.7
                    l0.5-2.3l-1,1.6c-0.1,0.1-0.1,0.3-0.6,0.2c-0.5-0.1-0.4-0.2-0.5-0.4l-0.3-1.8l-0.5,2.3c-0.1,0.4-0.2,0.6-0.6,0.5l-0.2,0
                    c-0.4-0.1-0.5-0.3-0.4-0.7L444.7,119z"></path>
                </g>
              </g>
            </g>
          </g>
        </g>
        </svg>